<?xml version="1.0" encoding="UTF-8" standalone="no"?>
<svg
   viewBox="0 0 257.00665 293.57138"
   version="1.1"
   preserveAspectRatio="xMidYMid"
   sodipodi:docname="Discord.svg"
   inkscape:version="1.4 (e7c3feb100, 2024-10-09)"
   id="svg1"
   xmlns:inkscape="http://www.inkscape.org/namespaces/inkscape"
   xmlns:sodipodi="http://sodipodi.sourceforge.net/DTD/sodipodi-0.dtd"
   xmlns="http://www.w3.org/2000/svg"
   xmlns:svg="http://www.w3.org/2000/svg">
  <defs
     id="defs1" />
  <sodipodi:namedview
     id="namedview1"
     pagecolor="#ffffff"
     bordercolor="#000000"
     borderopacity="0.25"
     inkscape:showpageshadow="2"
     inkscape:pageopacity="0.0"
     inkscape:pagecheckerboard="0"
     inkscape:deskcolor="#d1d1d1"
     inkscape:zoom="3.4095563"
     inkscape:cx="128.60911"
     inkscape:cy="146.93994"
     inkscape:window-width="3440"
     inkscape:window-height="1361"
     inkscape:window-x="0"
     inkscape:window-y="282"
     inkscape:window-maximized="1" />
  <rect
     style="fill:#ffffff;fill-opacity:1;stroke:#faf2ff;stroke-width:6.5;stroke-linecap:round;stroke-linejoin:round;stroke-miterlimit:5.8;stroke-dasharray:6.5, 13;paint-order:stroke fill markers"
     id="rect1"
     width="224.66266"
     height="181.54855"
     x="19.864"
     y="31.295795"
     rx="21.213203"
     ry="19.79899" />
  <g
     id="g1"
     style="stroke:#f14500;stroke-linecap:round;stroke-linejoin:round;stroke-dasharray:6, 2;stroke-dashoffset:0;stroke-opacity:0.347628"
     transform="translate(0.50664414,0.5)">
    <path
       d="M 226.01143,0 H 29.988571 C 13.458286,0 0,13.458286 0,30.134857 V 227.91314 C 0,244.58971 13.458286,258.048 29.988571,258.048 H 195.87657 l -7.75314,-27.06286 18.72457,17.408 17.70057,16.384 L 256,292.57143 V 30.134857 C 256,13.458286 242.54171,0 226.01143,0 Z m -56.46629,191.04914 c 0,0 -5.26628,-6.29028 -9.65485,-11.84914 19.16342,-5.41257 26.47771,-17.408 26.47771,-17.408 -5.99771,3.94971 -11.70286,6.72914 -16.82286,8.63086 -7.31428,3.072 -14.336,5.12 -21.21143,6.29028 -14.04342,2.63315 -26.91657,1.90172 -37.888,-0.14628 -8.33828,-1.60915 -15.506281,-3.94972 -21.503996,-6.29029 C 85.577143,168.96 81.92,167.35086 78.262857,165.30286 77.824,165.01029 77.385143,164.864 76.946286,164.57143 c -0.292572,-0.14629 -0.438857,-0.29257 -0.585143,-0.43886 -2.633143,-1.46286 -4.096,-2.48686 -4.096,-2.48686 0,0 7.021714,11.70286 25.6,17.26172 -4.388572,5.55886 -9.801143,12.14171 -9.801143,12.14171 -32.329143,-1.024 -44.617143,-22.23543 -44.617143,-22.23543 0,-47.104 21.065143,-85.284567 21.065143,-85.284567 21.065143,-15.798857 41.10629,-15.36 41.10629,-15.36 l 1.46285,1.755428 C 80.749714,77.531429 68.608,89.088 68.608,89.088 c 0,0 3.218286,-1.755429 8.630857,-4.242286 15.652572,-6.875428 28.086853,-8.777143 33.206853,-9.216 0.87772,-0.146285 1.60915,-0.292571 2.48686,-0.292571 8.92343,-1.170286 19.01714,-1.462857 29.54972,-0.292572 13.89714,1.609143 28.81828,5.705143 44.032,14.043429 0,0 -11.55658,-10.971429 -36.42515,-18.578286 l 2.048,-2.340571 c 0,0 20.04115,-0.438857 41.10629,15.36 0,0 21.06514,38.180567 21.06514,85.284567 0,0 -12.43428,21.21143 -44.76343,22.23543 z m -68.02285,-68.31543 c -8.33829,0 -14.921147,7.31429 -14.921147,16.23772 0,8.92343 6.729143,16.23771 14.921147,16.23771 8.33828,0 14.92114,-7.31428 14.92114,-16.23771 0.14628,-8.92343 -6.58286,-16.23772 -14.92114,-16.23772 m 53.39428,0 c -8.33828,0 -14.92114,7.31429 -14.92114,16.23772 0,8.92343 6.72914,16.23771 14.92114,16.23771 8.33829,0 14.92114,-7.31428 14.92114,-16.23771 0,-8.92343 -6.58285,-16.23772 -14.92114,-16.23772"
       fill="#7289da"
       id="path1"
       style="stroke:#f14500;stroke-linecap:round;stroke-linejoin:round;stroke-dasharray:6, 2;stroke-dashoffset:0;stroke-opacity:0.347628" />
  </g>
</svg>
