<?xml version="1.0" encoding="UTF-8" standalone="no"?>
<!-- Generator: Adobe Illustrator 19.0.0, SVG Export Plug-In . SVG Version: 6.00 Build 0)  -->

<svg
   version="1.1"
   viewBox="0 0 260.30234 152.59635"
   sodipodi:docname="plackards.svg"
   inkscape:version="1.4 (e7c3feb100, 2024-10-09)"
   id="svg1"
   xmlns:inkscape="http://www.inkscape.org/namespaces/inkscape"
   xmlns:sodipodi="http://sodipodi.sourceforge.net/DTD/sodipodi-0.dtd"
   xmlns="http://www.w3.org/2000/svg"
   xmlns:svg="http://www.w3.org/2000/svg"
   xmlns:rdf="http://www.w3.org/1999/02/22-rdf-syntax-ns#"
   xmlns:cc="http://creativecommons.org/ns#"
   xmlns:dc="http://purl.org/dc/elements/1.1/"><title
   id="title97">Ballot Sides</title>
<defs
   id="defs96" />
<sodipodi:namedview
   id="namedview96"
   pagecolor="#ffffff"
   bordercolor="#000000"
   borderopacity="0.25"
   inkscape:showpageshadow="2"
   inkscape:pageopacity="0.0"
   inkscape:pagecheckerboard="0"
   inkscape:deskcolor="#d1d1d1"
   inkscape:zoom="10.408612"
   inkscape:cx="-12.057324"
   inkscape:cy="111.25403"
   inkscape:window-width="3440"
   inkscape:window-height="1361"
   inkscape:window-x="0"
   inkscape:window-y="282"
   inkscape:window-maximized="1"
   inkscape:current-layer="g100" />
<style
   type="text/css"
   id="style1">
	.st0{fill:#FFFFFF;}
	.st1{fill-rule:evenodd;clip-rule:evenodd;fill:#AF1A28;}
	.st2{fill-rule:evenodd;clip-rule:evenodd;fill:#0B4975;}
	.st3{fill-rule:evenodd;clip-rule:evenodd;fill:#FFFFFF;}
	.st4{fill:#0B4975;}
	.st5{fill:#AF1A28;}
	.st6{fill-rule:evenodd;clip-rule:evenodd;fill:#0D4D7A;}
	.st7{fill-rule:evenodd;clip-rule:evenodd;fill:#21517C;}
	.st8{fill:#DE242C;}
	.st9{fill:#0D4D7A;}
</style>
<g
   id="g96"
   transform="translate(-2.3312373,-0.99783305)"><g
   id="g95">
		
		
		
		
		
		
		<g
   id="g94"
   transform="translate(-980.43479,-95.652174)"><path
   id="polygon86"
   clip-path="none"
   style="clip-rule:evenodd;fill:#9e1910;fill-rule:evenodd;stroke:#f6e8ff;stroke-width:3;stroke-linecap:round;stroke-linejoin:round;paint-order:stroke fill markers"
   class="st1"
   transform="translate(-2.7e-6)"
   d="m 1077.1,235.2 13.8,-6.1 9.019,18.64635 h -16.6 z"
   sodipodi:nodetypes="ccccc" />

			
			
			
			
			
			
		<g
   id="g97">
  <g
     id="g98"
     transform="translate(-20.752047,0.38429716)">
    <path
       id="path88-2"
       d="m 1199.0019,242.87734 -67.5195,-27.52684 c -13.3065,-5.44668 -19.6488,-20.64783 -14.2736,-33.88441 l 27.5268,-67.5195 c 5.4467,-13.30653 20.6478,-19.648849 33.8844,-14.273639 l 67.5195,27.526839 c 13.3065,5.44668 19.6489,20.64783 14.2737,33.88441 l -27.5269,67.5195 c -5.3752,13.23659 -20.5779,19.72032 -33.8844,14.27364 z m -23.794,-134.96745 c -8.6597,-3.55813 -18.6757,0.64778 -22.1639,9.37891 l -27.5268,67.5195 c -3.5582,8.65966 0.6478,18.67566 9.3789,22.16384 l 67.5195,27.52685 c 8.6596,3.55813 18.6756,-0.64778 22.1638,-9.37891 l 27.5269,-67.5195 c 3.5581,-8.65966 -0.6478,-18.67566 -9.3789,-22.16385 z"
       style="fill:#241e90;fill-opacity:1;stroke:#f6e8ff;stroke-width:3;stroke-linecap:round;stroke-linejoin:round;stroke-dasharray:none;stroke-opacity:1;paint-order:stroke fill markers" />
    <path
       d="m 1174.6668,108.45699 c -8.6975,-3.46497 -18.6677,0.84838 -22.0619,9.61651 l -26.7992,67.81161 c -3.4648,8.69749 0.8485,18.66762 9.6167,22.0618 l 67.8115,26.79935 c 8.6974,3.46483 18.6677,-0.84853 22.0618,-9.61666 l 26.7993,-67.81154 c 3.4648,-8.69741 -0.8485,-18.66762 -9.6166,-22.06172 z"
       id="path96-3-9"
       style="fill:#ffffff;fill-opacity:1" />
    <g
       id="g93"
       style="fill:#241e90;fill-opacity:1;stroke-width:4.6;paint-order:stroke fill markers">
				<path
   id="polygon92"
   style="clip-rule:evenodd;fill:#241e90;fill-opacity:1;fill-rule:evenodd"
   class="st1"
   d="M 1167.6182,245.63065 1171.3,235.2 l -13.8,-6.1 -7.4049,17.4298 z"
   sodipodi:nodetypes="ccccc" />

			</g>
    <g
       id="g100"
       transform="rotate(-21.241901,1118.3299,933.43342)">
      <g
         id="g87-6"
         transform="rotate(10.728792,1134.4323,863.9606)"
         style="fill:#5a109e;fill-opacity:1">
				<polygon
   class="st1"
   points="1066,186.7 1053,209.3 1050.4,183.3 1024.9,177.9 1048.7,167.4 1046,141.5 1063.4,160.9 1087.2,150.3 1074.1,172.9 1091.5,192.2 "
   id="polygon87-7"
   style="clip-rule:evenodd;fill:#5a109e;fill-opacity:1;fill-rule:evenodd;stroke:#f6e8ff;stroke-opacity:1;stroke-width:3.3;stroke-dasharray:none;paint-order:stroke fill markers" />

			</g>
      <circle
         style="fill:none;fill-opacity:1;stroke:#ffffff;stroke-width:6.5;stroke-linecap:round;stroke-linejoin:round;stroke-miterlimit:5.8;stroke-dasharray:6.5,13;stroke-opacity:1;paint-order:markers stroke fill;stroke-dashoffset:0"
         id="path96-1"
         cx="1190.1379"
         cy="172.63164"
         r="34.239132" />
      <circle
         style="opacity:1;fill:none;fill-opacity:1;stroke:#4c007e;stroke-width:4.352;stroke-linecap:round;stroke-linejoin:round;stroke-miterlimit:5.8;stroke-dasharray:none;stroke-opacity:1;paint-order:markers stroke fill"
         id="path96"
         cx="1189.9458"
         cy="172.55434"
         r="34.239132" />
      <circle
         style="fill:none;fill-opacity:1;stroke:#4c007e;stroke-width:0.852;stroke-linecap:round;stroke-linejoin:round;stroke-miterlimit:5.8;stroke-dasharray:2.556, 1.704;stroke-dashoffset:0;stroke-opacity:1;paint-order:markers stroke fill"
         id="path96-6"
         cx="1189.9617"
         cy="172.61534"
         r="31.52174" />
    </g>
  </g>
  <path
     d="m 1003.3829,138.15917 c -8.60015,3.7 -12.60015,13.8 -8.80015,22.4 l 29.00015,66.9 c 3.7,8.6 13.8,12.6 22.4,8.8 l 66.9,-29 c 8.6,-3.7 12.6,-13.8 8.8,-22.4 l -29,-66.9 c -3.7,-8.6 -13.8,-12.6 -22.4,-8.8 z"
     id="path96-3"
     style="fill:#ffffff;fill-opacity:1" />
  <path
     id="path88"
     d="m 1116.5,215.5 -66.9,29 c -13.2,5.7 -28.5,-0.4 -34.2,-13.5 l -29,-66.9 c -5.7,-13.2 0.4,-28.5 13.5,-34.2 l 66.9,-29 c 13.2,-5.7 28.5,0.4 34.2,13.5 l 29,66.9 c 5.7,13.1 -0.3,28.5 -13.5,34.2 z m -113.1,-77.4 c -8.6,3.7 -12.6,13.8 -8.8,22.4 l 29,66.9 c 3.7,8.6 13.8,12.6 22.4,8.8 l 66.9,-29 c 8.6,-3.7 12.6,-13.8 8.8,-22.4 l -29,-66.9 c -3.7,-8.6 -13.8,-12.6 -22.4,-8.8 z"
     style="fill:#9e1910;fill-opacity:1;stroke:#f6e8ff;stroke-width:3;stroke-linecap:round;stroke-linejoin:round;stroke-dasharray:none;stroke-opacity:1;paint-order:stroke fill markers" />
  <g
     id="g99"
     transform="rotate(24.650775,918.47398,-206.85044)">
    <g
       id="g87"
       style="fill:#5a109e;fill-opacity:1">
				<polygon
   class="st1"
   points="1091.5,192.2 1066,186.7 1053,209.3 1050.4,183.3 1024.9,177.9 1048.7,167.4 1046,141.5 1063.4,160.9 1087.2,150.3 1074.1,172.9 "
   id="polygon87"
   style="fill:#8401ad;fill-opacity:0.1627146" />

			</g>
    <circle
       style="fill:none;fill-opacity:1;stroke:#4c007e;stroke-width:1.952;stroke-linecap:round;stroke-linejoin:round;stroke-miterlimit:5.8;stroke-dasharray:7.808, 3.904, 1.952, 3.904;stroke-dashoffset:0;stroke-opacity:1;paint-order:markers stroke fill"
       id="path96-5"
       cx="1060.5129"
       cy="174.55646"
       r="25.000002" />
  </g>
</g>
</g>

	</g>

</g>

<metadata
   id="metadata98">
  <rdf:RDF>
    <cc:Work
       rdf:about="">
      <dc:title>Ballot Sides</dc:title>
    </cc:Work>
  </rdf:RDF>
</metadata>
</svg>
