<svg version="1.1" viewBox="0 0 1657.7 1227.8" xmlns="http://www.w3.org/2000/svg">
  <title>𝒲.𝒥.ℋ.</title>
  <style type="text/css"><![CDATA[
      :root {
        color-scheme: light dark;
      }
      path, circle {
        fill: none;
        paint-order: stroke fill markers;
        stroke-linecap: round;
        stroke-linejoin: round;
        stroke-miterlimit: 5.5;
        stroke-width: 75;
        stroke: light-dark(#49904B, #496C90);
      }
      circle {
        fill: light-dark(#49904B, #496C90);
      }
    ]]></style>
  <g transform="translate(56.479 -166.67)">
    <path d="m-18.979 324.97s67.291-123.31 125.22-120.75c49.967 2.2122 85.133 65.063 98.385 113.29 55.52 202.06-138.85 664.41-138.85 664.41l239.65-255.97 72.894 244.41s122.75-462.14 256.19-619.99c37.617-44.499 90.871-97.591 259.35-103.1"/>
    <path d="m720 962.98s-57.203-317.27 8.9441-454.66c32.946-68.427 88.978-137.74 166.96-155.03 61.141-13.561 130.9 103.76 102.86 177.39-20.14 52.887-397.25 797.81-563.48 825.84-64.547 10.882-75.155-128.03-52.174-189.32 67.978-181.3 307.43-242.08 484.47-320.5 218.95-96.983 696.15-177.39 696.15-177.39"/>
    <path d="m1046.5 310.06s74.621 27.058 73.044 58.137c-12.605 248.34-138.63 654.41-138.63 654.41"/>
    <path d="m1383.4 327.95-90.932 717.02"/>
    <circle cx="1385.6" cy="1066.7" r="10.405"/>
    <circle cx="865.93" cy="981.43" r="10.405"/>
    <circle cx="477.85" cy="972.98" r="10.405"/>
  </g>
</svg>
